<?xml version="1.0" encoding="UTF-8"?>
<svg id="Camada_1" data-name="Camada 1" xmlns="http://www.w3.org/2000/svg" xmlns:xlink="http://www.w3.org/1999/xlink" viewBox="0 0 768 768">
  <defs>
    <style>
      .cls-1 {
        fill: #c7e2cd;
      }

      .cls-2 {
        fill: #fff;
      }

      .cls-3 {
        fill: url(#Gradiente_sem_nome_45);
      }

      .cls-4 {
        fill: url(#Gradiente_sem_nome_7);
      }

      .cls-5 {
        fill: #266e6c;
      }
    </style>
    <linearGradient id="Gradiente_sem_nome_7" data-name="Gradiente sem nome 7" x1="242.89" y1="163.1" x2="525.56" y2="605.61" gradientUnits="userSpaceOnUse">
      <stop offset="0" stop-color="#c7e2cd"/>
      <stop offset=".51" stop-color="#fff"/>
      <stop offset="1" stop-color="#c7e2cd"/>
    </linearGradient>
    <linearGradient id="Gradiente_sem_nome_45" data-name="Gradiente sem nome 45" x1="185.73" y1="180.17" x2="576.09" y2="581.48" gradientUnits="userSpaceOnUse">
      <stop offset="0" stop-color="#266e6c" stop-opacity=".6"/>
      <stop offset=".33" stop-color="#fff"/>
      <stop offset=".75" stop-color="#d2e1e1"/>
      <stop offset="1" stop-color="#266e6c" stop-opacity=".6"/>
    </linearGradient>
  </defs>
  <rect class="cls-4" x="129.53" y="129.53" width="508.94" height="508.94" rx="175" ry="175"/>
  <rect class="cls-3" x="137.61" y="137.61" width="492.78" height="492.78" rx="175" ry="175"/>
  <rect class="cls-2" x="139.15" y="139.15" width="489.7" height="489.7" rx="175" ry="175"/>
  <path class="cls-1" d="m542.41,315.19c-1.82-2.73-4.6-4.1-8.34-4.1-6.55,0-12.19,2.68-16.91,8.03-4.12,4.64-7.28,10.62-9.49,17.92-.18.58-.34,1.15-.49,1.72-.8,1.02-1.75,2.05-2.85,3.08-1.89,1.78-3.98,3.29-6.26,4.52-2.28,1.24-4.48,1.85-6.57,1.85-4.49-.07-6.74-2.71-6.74-7.92,0-2.85.61-5.89,1.83-9.13,1.22-3.24,2.7-6.01,4.44-8.31,1.74-2.3,3.38-3.45,4.92-3.45.86,0,1.29.54,1.29,1.63,0,1.16-.53,2.51-1.6,4.04-1.07,1.54-2.46,2.49-4.19,2.86.71,3.41,2.83,5.11,6.35,5.11,1.61-.04,3.09-.64,4.44-1.8,1.35-1.16,2.42-2.63,3.2-4.41.79-1.78,1.18-3.62,1.18-5.53,0-1.76-.4-3.42-1.21-4.97-.81-1.55-2.11-2.82-3.9-3.79-1.8-.97-4.21-1.46-7.25-1.46-3.86,0-7.44,1.11-10.76,3.31-3.31,2.21-6.19,5.08-8.62,8.62s-4.33,7.4-5.7,11.57c-.45,1.37-.82,2.73-1.12,4.07-.82,1.05-1.79,2.11-2.93,3.17-1.89,1.78-3.97,3.29-6.24,4.52-2.27,1.24-4.45,1.85-6.54,1.85-1.16,0-2.26-.23-3.29-.7-1.03-.47-1.87-1.24-2.53-2.3-.66-1.07-.98-2.54-.98-4.41l.11-2.42c1.65.67,3.22,1.01,4.72,1.01,2.96,0,5.69-.96,8.2-2.89,2.51-1.93,4.53-4.33,6.07-7.19,1.54-2.86,2.3-5.68,2.3-8.45,0-1.8-.4-3.44-1.21-4.92-.81-1.48-2.07-2.66-3.79-3.54-1.72-.88-4.01-1.32-6.85-1.32-3.78,0-7.31,1.05-10.59,3.15-3.28,2.1-6.15,4.88-8.62,8.34-2.47,3.46-4.41,7.31-5.81,11.54-.52,1.57-.94,3.14-1.27,4.71-1.34,2.12-2.63,3.89-3.87,5.29-1.65,1.87-3.22,2.81-4.72,2.81-.56,0-1.02-.17-1.38-.51-.36-.34-.53-.86-.53-1.57.19-1.87.96-4.7,2.3-8.48.94-2.62,1.8-5.36,2.58-8.23.79-2.87,1.22-5.53,1.29-8,0-3.15-.81-5.44-2.42-6.88-1.61-1.44-3.78-2.16-6.52-2.16-1.99,0-4.18.49-6.57,1.46-2.4.97-4.72,2.7-6.97,5.17-.56-4.42-3.39-6.63-8.48-6.63-4.49,0-8.45,1.84-11.85,5.51l2.08-5.51h-15.95c-4.82,12.45-8.36,21.68-10.64,27.73.99-4.13,1.49-8.11,1.49-11.95,0-5.06-.91-8.95-2.72-11.68-1.82-2.73-4.6-4.1-8.34-4.1-6.55,0-12.19,2.68-16.91,8.03-4.12,4.64-7.28,10.62-9.49,17.92-.16.53-.31,1.05-.45,1.57-2.27,2.93-5.31,5.43-9.13,7.5-4.66,2.53-9.09,3.79-13.29,3.79-2.47,0-4.5-.55-6.09-1.66-1.59-1.1-2.76-2.62-3.51-4.55-.75-1.93-1.12-4.13-1.12-6.6,0-4.72.79-9.64,2.36-14.77,1.57-5.13,3.61-9.89,6.12-14.27,2.51-4.38,5.25-7.95,8.23-10.7,2.98-2.75,5.87-4.13,8.68-4.13.79,0,1.52.22,2.19.67.67.45,1.01,1.24,1.01,2.36-.04,2.17-.58,4.29-1.63,6.35-1.05,2.06-2.48,3.77-4.3,5.14-1.82,1.37-3.9,2.05-6.26,2.05-.9,0-1.84-.13-2.81-.39-.11.64-.17,1.24-.17,1.8,0,2.81,1.06,5.02,3.17,6.63,2.12,1.61,4.63,2.42,7.56,2.42,3.41,0,6.37-1.01,8.88-3.03,2.51-2.02,4.47-4.6,5.87-7.72,1.4-3.13,2.11-6.34,2.11-9.63,0-2.7-.54-5.21-1.63-7.56-1.09-2.34-2.78-4.24-5.08-5.7-2.3-1.46-5.31-2.19-9.02-2.19-4.87,0-9.57,1.27-14.1,3.82-4.53,2.55-8.72,5.95-12.56,10.2-3.84,4.25-7.19,9.02-10.05,14.3-2.87,5.28-5.1,10.73-6.71,16.35-1.61,5.62-2.42,10.97-2.42,16.07,0,4.83.81,9.2,2.44,13.12,1.63,3.91,4.22,7.02,7.78,9.33,3.56,2.3,8.22,3.45,13.99,3.45,8.2,0,15.28-3.75,21.23-11.23,2.52-3.16,4.78-6.76,6.8-10.8,0,3.02.47,5.74,1.4,8.16.94,2.43,2.41,4.37,4.41,5.81,2,1.44,4.63,2.16,7.89,2.16,4.08,0,7.71-1.21,10.9-3.62,3.18-2.42,5.87-5.53,8.06-9.35.28-.49.55-.98.81-1.48-1.86,5.1-3.57,9.92-5.12,14.46h15.95c2.13-6.29,6.2-17.32,12.19-33.09,1.09-3,2.49-5.49,4.21-7.47.97-1.16,2-1.74,3.09-1.74,1.5,0,2.25.86,2.25,2.58,0,1.24-1.71,6.38-5.14,15.42s-6.36,17.14-8.79,24.3h15.95l10.22-27.81c3.33-9.66,6.4-14.49,9.21-14.49,1.5,0,2.25.86,2.25,2.58,0,1.16-.38,2.78-1.15,4.86-.77,2.08-1.7,4.39-2.78,6.94-1.35,3.22-2.59,6.44-3.74,9.66-1.14,3.22-1.75,6.05-1.83,8.48,0,1.76.32,3.38.96,4.86.64,1.48,1.64,2.67,3.01,3.57,1.37.9,3.15,1.35,5.37,1.35,3.41,0,6.37-.94,8.88-2.81,2.51-1.87,4.66-4.25,6.46-7.13,1.43-2.3,2.69-4.68,3.79-7.14.12,2.96.66,5.66,1.63,8.1,1.1,2.77,2.87,4.96,5.31,6.57,2.43,1.61,5.62,2.42,9.55,2.42s7.32-.76,10.17-2.27,5.29-3.58,7.33-6.18c1.98-2.52,3.7-5.38,5.17-8.55.28,6.74,2.62,11.58,7.05,14.53,1.98,1.35,4.44,2.13,7.36,2.36l-2.92,3.76c3.18,1.2,4.77,2.64,4.77,4.33,0,.97-.62,1.46-1.85,1.46s-2.64-.97-4.1-2.92c-1.35,1.61-2.02,3.24-2.02,4.89,0,2.77,1.87,4.16,5.62,4.16,5.58,0,8.37-2.17,8.37-6.52,0-2.85-1.63-5.11-4.89-6.8l1.85-2.36c5.99-.64,10.93-3.43,14.83-8.37,1.6-2.03,3.12-4.48,4.56-7.35.03,2.9.5,5.52,1.4,7.86.94,2.43,2.41,4.37,4.41,5.81,2,1.44,4.63,2.16,7.89,2.16,4.08,0,7.71-1.21,10.9-3.62,3.18-2.42,5.87-5.53,8.06-9.35,2.19-3.82,3.86-7.96,5-12.41,1.14-4.46,1.71-8.74,1.71-12.86,0-5.06-.91-8.95-2.72-11.68Zm-93.64,12.81c1.14-2.47,2.42-4.52,3.85-6.15,1.42-1.63,2.79-2.44,4.1-2.44.49,0,.82.15,1.01.45.19.3.28.69.28,1.18-.04,1.27-.66,2.94-1.85,5-1.2,2.06-2.7,4.02-4.49,5.87-1.8,1.85-3.63,3.12-5.51,3.79.6-2.66,1.47-5.22,2.61-7.7Zm-99.28-.56l-.06.28c-.34,2.92-1,5.95-1.99,9.07-.99,3.13-2.15,5.81-3.48,8.03-1.33,2.23-2.69,3.34-4.07,3.34-2.02,0-3.03-1.76-3.03-5.28,0-3.26.76-7.08,2.28-11.46,1.52-4.38,3.19-7.77,5.03-10.17.3-.37.73-.78,1.29-1.21.56-.43,1.16-.65,1.8-.65,1.61.11,2.42,1.78,2.42,5,0,1.24-.06,2.25-.17,3.03Zm186.49,0l-.06.28c-.34,2.92-1,5.95-1.99,9.07-.99,3.13-2.15,5.81-3.48,8.03-1.33,2.23-2.69,3.34-4.07,3.34-2.02,0-3.03-1.76-3.03-5.28,0-3.26.76-7.08,2.28-11.46,1.52-4.38,3.19-7.77,5.03-10.17.3-.37.73-.78,1.29-1.21.56-.43,1.16-.65,1.8-.65,1.61.11,2.42,1.78,2.42,5,0,1.24-.06,2.25-.17,3.03Z"/>
  <path class="cls-1" d="m411.96,386.13c-.35.59-.85,1.2-1.5,1.81-.65.61-1.37,1.14-2.15,1.56-.78.43-1.54.64-2.26.64-.4,0-.78-.08-1.14-.24-.36-.16-.65-.43-.87-.8-.23-.37-.34-.88-.34-1.52l.04-.84c.57.23,1.11.35,1.63.35,1.02,0,1.97-.33,2.83-1,.87-.67,1.57-1.49,2.1-2.48.53-.99.8-1.96.8-2.92,0-.62-.14-1.19-.42-1.7-.28-.51-.71-.92-1.31-1.22-.6-.3-1.38-.46-2.37-.46-1.31,0-2.53.36-3.66,1.09-1.13.73-2.13,1.69-2.98,2.88-.85,1.2-1.52,2.53-2.01,3.99-.18.53-.31,1.07-.42,1.6-.47.74-.92,1.36-1.34,1.85-.56.65-1.11.97-1.64.97-.44,0-.66-.28-.66-.83.04-.66.42-1.93,1.15-3.8l.19-.5c1.51-4.13,3.1-8.35,4.75-12.67h-5.51l-2.39,6.29c-.69-.57-1.68-.85-2.99-.85-1.19,0-2.29.29-3.29.87-1,.58-1.9,1.35-2.7,2.31-.8.96-1.47,2.03-2.03,3.21-.56,1.18-.98,2.4-1.27,3.65-.29,1.25-.44,2.42-.44,3.52,0,.97.12,1.84.36,2.61.24.77.6,1.38,1.1,1.82.49.45,1.12.67,1.88.67,2.1,0,3.71-1.09,4.83-3.26.09,1.15.43,1.98,1.01,2.49.58.51,1.27.77,2.08.77,1.18,0,2.2-.32,3.07-.97.87-.65,1.61-1.47,2.24-2.46.5-.79.93-1.61,1.31-2.46.04,1.02.22,1.95.55,2.79.38.96.99,1.71,1.83,2.27.84.56,1.94.83,3.3.83s2.53-.26,3.51-.79c.98-.52,1.83-1.24,2.53-2.13.71-.9,1.32-1.92,1.83-3.06.52-1.14.98-2.34,1.4-3.61l-.64-.27Zm-7.15-2.97c.39-.85.84-1.56,1.33-2.13.49-.56.96-.84,1.42-.84.17,0,.28.05.35.16.06.1.1.24.1.41-.01.44-.23,1.02-.64,1.73s-.93,1.39-1.55,2.03c-.62.64-1.26,1.08-1.9,1.31.21-.92.51-1.8.9-2.66Zm-14.05-.22c-.28.91-.63,1.89-1.07,2.92-.43,1.04-.89,1.93-1.36,2.7-.47.76-.9,1.15-1.29,1.15s-.56-.36-.56-1.07c0-.59.13-1.35.39-2.27.26-.92.6-1.82,1.02-2.72.42-.89.88-1.64,1.38-2.25.5-.61.98-.91,1.45-.91.31,0,.47.22.47.66,0,.28-.14.88-.42,1.8Z"/>
  <path class="cls-1" d="m462.35,386.13c-.63,1.09-1.24,1.95-1.8,2.6-.57.65-1.11.97-1.63.97-.19,0-.35-.06-.48-.17-.12-.12-.18-.3-.18-.54.06-.65.33-1.62.8-2.93.32-.9.62-1.85.89-2.84.27-.99.42-1.91.45-2.77,0-1.09-.28-1.88-.83-2.38-.56-.5-1.31-.75-2.25-.75-.69,0-1.44.17-2.27.5-.83.34-1.63.93-2.41,1.79-.19-1.53-1.17-2.29-2.93-2.29-1.55,0-2.92.63-4.09,1.9l.72-1.9h-5.51c-1.67,4.31-2.9,7.51-3.68,9.6-.46.72-.9,1.33-1.32,1.81-.57.65-1.12.97-1.65.97-.43,0-.64-.24-.64-.72.06-.98.92-3.5,2.56-7.55.5-1.27,1.07-2.64,1.69-4.11h-5.49c-.74,1.67-1.66,3.91-2.76,6.73-1.45,3.76-2.63,5.65-3.53,5.65-.58,0-.87-.34-.87-1.01,0-1.18.49-2.91,1.47-5.2l.04-.08c.79-2.01,1.61-4.04,2.46-6.09h-5.47c-.62,1.38-1.31,3.01-2.08,4.89-.76,1.88-1.43,3.71-2,5.5-.57,1.79-.87,3.26-.91,4.4,0,.92.18,1.66.53,2.23.36.57.82.99,1.39,1.25.57.27,1.16.4,1.79.4.88,0,1.76-.19,2.64-.56.88-.37,1.64-1.03,2.27-1.96.19.88.57,1.52,1.12,1.92.55.4,1.18.6,1.89.6,1.18,0,2.2-.32,3.07-.97.46-.34.88-.74,1.27-1.18-.26.73-.51,1.45-.75,2.15h5.51c.74-2.17,2.14-5.98,4.21-11.43.38-1.04.86-1.9,1.46-2.58.34-.4.69-.6,1.07-.6.52,0,.78.3.78.89,0,.43-.59,2.2-1.78,5.33-1.18,3.12-2.2,5.92-3.04,8.39h5.51l3.53-9.61c1.15-3.34,2.21-5.01,3.18-5.01.52,0,.78.3.78.89,0,.4-.13.96-.4,1.68-.27.72-.59,1.52-.96,2.4-.47,1.11-.9,2.23-1.29,3.34-.39,1.11-.6,2.09-.63,2.93,0,.61.11,1.17.33,1.68.22.51.57.92,1.04,1.23.47.31,1.09.47,1.85.47,1.18,0,2.2-.32,3.07-.97.87-.65,1.61-1.47,2.23-2.46.62-1,1.15-2.04,1.59-3.12.44-1.09.81-2.1,1.11-3.03l-.64-.27Z"/>
  <g>
    <path class="cls-5" d="m308.17,494.64c-5.12,0-10.03-.62-14.7-1.87-4.68-1.24-8.83-3.15-12.46-5.71-3.63-2.56-6.49-5.78-8.58-9.66s-3.13-8.46-3.13-13.73c0-6.97,2.07-13.35,6.19-19.14,4.13-5.8,9.7-9.66,16.72-11.6l-.07,2.84c0,5.52,1.09,9.94,3.28,13.25,2.19,3.31,4.94,5.71,8.25,7.2,3.31,1.49,6.65,2.24,10.04,2.24,4.28,0,8.12-1.01,11.53-3.02,3.41-2.02,5.11-4.56,5.11-7.65,0-2.29-1.24-4.13-3.73-5.52-2.49-1.39-5.52-2.74-9.1-4.03-2.99-1.09-6.05-2.38-9.18-3.84-3.13-1.47-6.07-3.27-8.81-5.41-6.12-4.93-9.18-11.62-9.18-20.08,0-6.32,2.13-12.47,6.38-18.47,4.25-5.99,9.7-10.94,16.34-14.85,6.64-3.91,13.55-5.86,20.71-5.86,4.78,0,9.15.77,13.13,2.31,3.98,1.54,7.16,3.92,9.55,7.13,2.39,3.21,3.58,7.38,3.58,12.5,0,4.18-.83,8.18-2.5,12.02-1.67,3.83-4.03,6.97-7.09,9.4-3.06,2.44-6.73,3.66-11.01,3.66-2.79,0-5.32-.53-7.61-1.6-2.29-1.07-4.1-2.67-5.45-4.81-1.34-2.14-2.02-4.8-2.02-7.98,1.34.35,2.61.52,3.81.52,3.03,0,5.68-.88,7.95-2.65,2.26-1.77,4.02-3.98,5.26-6.64,1.24-2.66,1.87-5.31,1.87-7.95,0-2.94-2.07-4.4-6.19-4.4-2.29,0-4.95.54-7.98,1.6-3.04,1.07-5.97,2.64-8.81,4.7-2.84,2.07-5.2,4.58-7.09,7.54-1.89,2.96-2.84,6.33-2.84,10.11,0,2.89.94,5.27,2.84,7.16,1.89,1.89,4.37,3.52,7.43,4.89,3.06,1.37,6.39,2.68,10,3.92,3.61,1.24,7.19,2.64,10.75,4.18,3.56,1.54,6.82,3.43,9.78,5.67,2.96,2.24,5.35,5.01,7.16,8.32,1.82,3.31,2.72,7.4,2.72,12.28,0,7.12-1.57,13.36-4.7,18.73-3.13,5.37-7.28,9.86-12.43,13.47-5.15,3.61-10.83,6.32-17.05,8.13-6.22,1.82-12.44,2.72-18.66,2.72Z"/>
    <path class="cls-5" d="m384.74,476.95c-4.33,0-7.82-.96-10.49-2.87-2.66-1.91-4.62-4.49-5.86-7.72-1.24-3.23-1.87-6.87-1.87-10.9,0-4.97.85-10.25,2.54-15.82,2.94-9.7,7.14-17.64,12.61-23.81,6.27-7.11,13.76-10.67,22.46-10.67,4.97,0,8.67,1.82,11.08,5.45,2.41,3.63,3.62,8.81,3.62,15.52,0,5.47-.76,11.17-2.28,17.09-1.52,5.92-3.73,11.42-6.64,16.49-2.91,5.07-6.48,9.22-10.71,12.43-4.23,3.21-9.06,4.81-14.48,4.81Zm9.18-22.54c1.84,0,3.64-1.48,5.41-4.44,1.77-2.96,3.31-6.52,4.63-10.67,1.32-4.15,2.2-8.17,2.65-12.05l.07-.37c.15-1.04.22-2.39.22-4.03,0-4.28-1.07-6.49-3.21-6.64-.85,0-1.64.29-2.39.86-.75.57-1.32,1.11-1.72,1.6-2.44,3.18-4.66,7.69-6.68,13.51-2.01,5.82-3.02,10.9-3.02,15.22,0,4.68,1.34,7.01,4.03,7.01Z"/>
    <path class="cls-5" d="m455.93,476.95c-2.94,0-5.32-.6-7.16-1.79-1.84-1.19-3.18-2.77-4.03-4.74-.85-1.96-1.27-4.12-1.27-6.46.1-3.23.91-6.98,2.43-11.23,1.52-4.25,3.17-8.49,4.96-12.72,1.44-3.38,2.69-6.47,3.73-9.25,1.04-2.79,1.57-4.97,1.57-6.57,0-2.29-1-3.43-2.99-3.43-1.54,0-3,.85-4.37,2.54-1.37,1.69-2.55,3.58-3.54,5.67-1,2.09-1.74,3.83-2.24,5.22l-1.04,2.76c-6.57,17.16-11.47,30.5-14.7,40h-21.19c3.33-9.75,7.21-20.5,11.64-32.24,2.94-7.86,7.99-21.05,15.15-39.55h21.19l-2.54,6.64c4.08-4.43,8.48-6.64,13.21-6.64,3.68,0,6.59.96,8.73,2.87,2.14,1.92,3.21,4.96,3.21,9.14-.1,3.48-.7,7.13-1.79,10.93-1.09,3.81-2.26,7.4-3.51,10.78-1.79,4.73-2.79,8.28-2.99,10.67,0,2.14.85,3.21,2.54,3.21,2.04,0,4.15-1.24,6.34-3.73,2.19-2.49,4.5-5.82,6.94-10l2.39,1.04c-1.15,3.58-2.55,7.46-4.22,11.64-1.67,4.18-3.69,8.18-6.08,12.02-2.39,3.83-5.25,6.99-8.58,9.48-3.33,2.49-7.26,3.73-11.79,3.73Z"/>
    <path class="cls-5" d="m519.82,476.95c-2.99,0-5.39-.61-7.2-1.83-1.82-1.22-3.13-2.82-3.96-4.81-.82-1.99-1.23-4.18-1.23-6.57.15-2.94.93-6.44,2.35-10.52,1.42-4.08,3-8.23,4.74-12.46,1.49-3.58,2.76-6.84,3.81-9.78,1.04-2.94,1.62-5.27,1.72-7.02,0-2.04-1-3.11-2.99-3.21-1.04,0-2.49.88-4.33,2.65-1.84,1.77-3.56,4.51-5.15,8.25-6.42,16.37-11.87,31.47-16.34,45.3h-21.2c4.08-11.99,9.73-27.7,16.94-47.13,7.21-19.43,12.94-34.62,17.16-45.56h21.19c-4.08,10.75-7.64,20.22-10.67,28.43,4.23-5.02,8.91-7.54,14.03-7.54,3.68,0,6.58.97,8.69,2.91,2.11,1.94,3.17,5.05,3.17,9.33-.1,3.43-.7,7.05-1.79,10.86-1.09,3.81-2.26,7.43-3.51,10.86-1.74,4.68-2.71,8.16-2.91,10.45,0,2.14.85,3.21,2.54,3.21,2.04,0,4.15-1.24,6.34-3.73,2.19-2.49,4.48-5.82,6.87-10l2.46,1.04c-1.15,3.58-2.55,7.46-4.22,11.64-1.67,4.18-3.71,8.18-6.12,12.02-2.41,3.83-5.29,6.99-8.62,9.48-3.33,2.49-7.26,3.73-11.79,3.73Z"/>
    <path class="cls-5" d="m562.73,476.95c-4.33,0-7.82-.96-10.49-2.87-2.66-1.91-4.62-4.49-5.86-7.72-1.24-3.23-1.87-6.87-1.87-10.9,0-4.97.85-10.25,2.54-15.82,2.93-9.7,7.14-17.64,12.61-23.81,6.27-7.11,13.76-10.67,22.46-10.67,4.97,0,8.67,1.82,11.08,5.45,2.41,3.63,3.62,8.81,3.62,15.52,0,5.47-.76,11.17-2.28,17.09-1.52,5.92-3.73,11.42-6.64,16.49-2.91,5.07-6.48,9.22-10.71,12.43-4.23,3.21-9.06,4.81-14.48,4.81Zm9.18-22.54c1.84,0,3.64-1.48,5.41-4.44,1.77-2.96,3.31-6.52,4.63-10.67,1.32-4.15,2.2-8.17,2.65-12.05l.08-.37c.15-1.04.22-2.39.22-4.03,0-4.28-1.07-6.49-3.21-6.64-.85,0-1.64.29-2.39.86-.75.57-1.32,1.11-1.72,1.6-2.44,3.18-4.66,7.69-6.68,13.51-2.01,5.82-3.02,10.9-3.02,15.22,0,4.68,1.34,7.01,4.03,7.01Z"/>
  </g>
  <g>
    <path class="cls-5" d="m295.45,344.45c.83.58,2.03.87,3.58.87.49,0,.98-.03,1.48-.07.04-1.18.07-2.37.07-3.55,0-8.42-1.15-16.6-3.43-24.53-.84,2.03-1.6,4.13-2.27,6.29-1.44,4.69-2.16,9.22-2.16,13.48,0,1.91.28,3.59.82,5,.43,1.12,1.04,1.92,1.91,2.52Z"/>
    <path class="cls-5" d="m291.94,375.28c-6.61,0-12.12-1.4-16.39-4.16-1.38-.89-2.63-1.9-3.77-3-1.89,4.23-4.18,7.88-6.89,10.91-4.02,4.5-8.76,6.74-14.2,6.74-3.8,0-6.87-.85-9.22-2.57-2.34-1.71-4.05-4.07-5.13-7.08-1.08-3.01-1.61-6.41-1.61-10.21,0-10.32,2.96-21.64,8.88-33.96,5.92-12.32,12.75-21.07,20.47-26.27-1.84-3.1-4.51-5.23-8.03-6.37-3.52-1.14-6.79-1.71-9.83-1.71-9.44,0-17.99,4.08-25.65,12.26-7.22,7.79-13,17.54-17.34,29.26-4.34,11.72-6.51,23.37-6.51,34.96,0,6.33.78,12.37,2.33,18.1,1.55,5.73,3.99,10.78,7.32,15.15,3.32,4.37,7.65,7.82,12.97,10.36,5.32,2.53,11.78,3.8,19.38,3.8,9.5,0,18.07-2.3,25.7-6.89,7.63-4.59,14.14-10.7,19.52-18.34,4.5-6.39,8.11-13.44,10.84-21.13-.94.09-1.88.14-2.84.14Z"/>
    <path class="cls-5" d="m198.73,319.56c0-2.47.35-4.97,1.05-7.51,2.66-9.06,7.08-15.64,13.25-19.76,6.18-4.12,13.22-6.18,21.14-6.18,14.69,0,25.84,5.57,33.44,16.72,1.85,2.75,3.43,5.68,4.76,8.78.2-.39.4-.78.61-1.17,3.02-5.56,6.6-10.66,10.66-15.15.51-.57,1.03-1.12,1.56-1.67-.28-.35-.54-.71-.82-1.05-5.54-6.71-12.65-12.07-21.33-16.06-8.68-3.99-19.03-5.99-31.07-5.99-11.15.06-21.39,1.89-30.73,5.46-9.34,3.58-16.88,8.82-22.61,15.72-5.73,6.9-8.69,15.26-8.88,25.08,0,4.43.87,8.2,2.61,11.31,1.74,3.1,4.04,5.48,6.89,7.13,2.85,1.65,5.95,2.47,9.31,2.47,4.5,0,9.06-1.61,13.68-4.84-2.34-4.12-3.52-8.55-3.52-13.3Z"/>
  </g>
</svg>