<?xml version="1.0" encoding="UTF-8"?>
<svg id="Camada_1" data-name="Camada 1" xmlns="http://www.w3.org/2000/svg" viewBox="0 0 1080 1080">
  <defs>
    <style>
      .cls-1 {
        fill: #c7e2cd;
      }

      .cls-2 {
        fill: #266e6c;
      }
    </style>
  </defs>
  <path class="cls-1" d="m880.89,392.75c-3.91-5.88-9.88-8.82-17.93-8.82-14.09,0-26.21,5.76-36.35,17.27-8.86,9.98-15.66,22.82-20.41,38.52-.38,1.24-.72,2.47-1.05,3.7-1.73,2.19-3.77,4.4-6.14,6.63-4.07,3.83-8.56,7.06-13.47,9.72-4.91,2.66-9.62,3.99-14.13,3.99-9.66-.16-14.49-5.84-14.49-17.03,0-6.12,1.31-12.66,3.92-19.62,2.62-6.96,5.8-12.92,9.54-17.87,3.74-4.95,7.27-7.43,10.57-7.43,1.85,0,2.78,1.17,2.78,3.5,0,2.5-1.15,5.39-3.44,8.7-2.29,3.3-5.3,5.35-9,6.16,1.53,7.33,6.08,10.99,13.65,10.99,3.46-.08,6.64-1.37,9.54-3.86,2.9-2.5,5.19-5.66,6.88-9.48,1.69-3.82,2.54-7.79,2.54-11.89,0-3.78-.87-7.35-2.6-10.69-1.73-3.34-4.53-6.06-8.39-8.15-3.87-2.09-9.06-3.14-15.58-3.14-8.29,0-16,2.38-23.13,7.13-7.12,4.75-13.3,10.93-18.54,18.54s-9.32,15.9-12.26,24.88c-.96,2.95-1.75,5.86-2.4,8.76-1.76,2.25-3.85,4.53-6.29,6.82-4.07,3.83-8.54,7.06-13.41,9.72-4.87,2.66-9.56,3.99-14.07,3.99-2.5,0-4.85-.5-7.06-1.51-2.22-1.01-4.03-2.66-5.44-4.95-1.41-2.29-2.11-5.45-2.11-9.48l.24-5.19c3.54,1.45,6.92,2.17,10.14,2.17,6.36,0,12.24-2.07,17.63-6.22,5.39-4.15,9.74-9.3,13.04-15.46,3.3-6.16,4.95-12.22,4.95-18.18,0-3.86-.87-7.39-2.6-10.57-1.73-3.18-4.45-5.72-8.15-7.61-3.7-1.89-8.62-2.84-14.73-2.84-8.13,0-15.72,2.26-22.77,6.76-7.05,4.51-13.22,10.49-18.54,17.93-5.31,7.45-9.48,15.72-12.5,24.82-1.12,3.37-2.03,6.75-2.73,10.12-2.89,4.56-5.66,8.36-8.32,11.38-3.54,4.03-6.92,6.04-10.14,6.04-1.21,0-2.19-.36-2.96-1.09-.77-.72-1.15-1.85-1.15-3.38.4-4.03,2.05-10.1,4.95-18.24,2.01-5.63,3.87-11.53,5.56-17.69,1.69-6.16,2.61-11.9,2.78-17.21,0-6.76-1.73-11.69-5.19-14.79-3.46-3.1-8.13-4.65-14.01-4.65-4.27,0-8.98,1.05-14.13,3.14-5.15,2.09-10.14,5.8-14.98,11.11-1.21-9.5-7.29-14.25-18.24-14.25-9.66,0-18.16,3.95-25.48,11.84l4.47-11.84h-34.3c-10.36,26.76-17.97,46.62-22.87,59.62,2.13-8.87,3.21-17.44,3.21-25.69,0-10.87-1.95-19.24-5.86-25.12-3.91-5.88-9.88-8.82-17.93-8.82-14.09,0-26.21,5.76-36.35,17.27-8.86,9.98-15.66,22.82-20.41,38.52-.34,1.14-.67,2.26-.97,3.38-4.89,6.3-11.43,11.68-19.62,16.12-10.02,5.43-19.54,8.15-28.56,8.15-5.31,0-9.68-1.19-13.1-3.56-3.42-2.37-5.94-5.63-7.55-9.78-1.61-4.15-2.42-8.88-2.42-14.19,0-10.14,1.69-20.73,5.07-31.76,3.38-11.03,7.77-21.25,13.16-30.67,5.39-9.42,11.29-17.09,17.69-23.01,6.4-5.92,12.62-8.88,18.66-8.88,1.69,0,3.26.48,4.71,1.45,1.45.97,2.17,2.66,2.17,5.07-.08,4.67-1.25,9.22-3.5,13.65-2.26,4.43-5.34,8.11-9.24,11.05-3.91,2.94-8.39,4.41-13.46,4.41-1.93,0-3.95-.28-6.04-.85-.24,1.37-.36,2.66-.36,3.87,0,6.04,2.27,10.79,6.82,14.25,4.55,3.46,9.96,5.19,16.24,5.19,7.33,0,13.69-2.17,19.08-6.52,5.39-4.35,9.6-9.88,12.62-16.61,3.02-6.72,4.53-13.63,4.53-20.71,0-5.8-1.17-11.21-3.5-16.24-2.34-5.03-5.98-9.12-10.93-12.26-4.95-3.14-11.41-4.71-19.38-4.71-10.47,0-20.57,2.74-30.31,8.21-9.74,5.48-18.74,12.78-26.99,21.92-8.25,9.14-15.46,19.38-21.62,30.74-6.16,11.35-10.97,23.07-14.43,35.14-3.46,12.08-5.19,23.59-5.19,34.54,0,10.39,1.75,19.79,5.25,28.2,3.5,8.41,9.08,15.1,16.73,20.05,7.65,4.95,17.67,7.43,30.07,7.43,17.63,0,32.85-8.05,45.65-24.15,5.41-6.79,10.28-14.53,14.62-23.22,0,6.49,1.01,12.34,3.02,17.55,2.01,5.23,5.17,9.4,9.48,12.5,4.31,3.1,9.96,4.65,16.97,4.65,8.77,0,16.58-2.6,23.43-7.79,6.84-5.19,12.62-11.89,17.33-20.11.6-1.05,1.18-2.11,1.75-3.18-4.01,10.97-7.68,21.34-11.01,31.08h34.3c4.59-13.53,13.32-37.24,26.21-71.13,2.33-6.44,5.35-11.79,9.06-16.06,2.09-2.49,4.3-3.74,6.64-3.74,3.22,0,4.83,1.85,4.83,5.56,0,2.66-3.68,13.71-11.05,33.15-7.37,19.44-13.67,36.85-18.9,52.23h34.3l21.98-59.78c7.17-20.77,13.77-31.16,19.81-31.16,3.22,0,4.83,1.85,4.83,5.56,0,2.5-.83,5.98-2.47,10.45-1.65,4.47-3.64,9.44-5.98,14.91-2.9,6.93-5.57,13.85-8.03,20.77-2.46,6.93-3.76,13-3.92,18.24,0,3.79.68,7.27,2.05,10.45,1.37,3.18,3.52,5.74,6.46,7.67,2.94,1.93,6.78,2.9,11.53,2.9,7.33,0,13.69-2.01,19.08-6.04,5.39-4.03,10.02-9.14,13.89-15.34,3.08-4.94,5.78-10.06,8.15-15.36.25,6.36,1.42,12.17,3.51,17.41,2.37,5.96,6.18,10.67,11.41,14.13,5.23,3.46,12.08,5.19,20.53,5.19s15.74-1.63,21.86-4.89c6.12-3.26,11.37-7.69,15.76-13.28,4.25-5.42,7.95-11.56,11.11-18.38.59,14.49,5.64,24.9,15.16,31.24,4.27,2.9,9.54,4.59,15.82,5.07l-6.28,8.09c6.84,2.58,10.26,5.68,10.26,9.3,0,2.09-1.33,3.14-3.98,3.14s-5.68-2.09-8.82-6.28c-2.9,3.46-4.35,6.96-4.35,10.51,0,5.96,4.02,8.94,12.08,8.94,12,0,17.99-4.67,17.99-14.01,0-6.12-3.5-10.99-10.51-14.61l3.98-5.07c12.88-1.37,23.51-7.37,31.88-17.99,3.44-4.36,6.7-9.64,9.8-15.81.07,6.23,1.07,11.86,3,16.9,2.01,5.23,5.17,9.4,9.48,12.5,4.31,3.1,9.96,4.65,16.97,4.65,8.77,0,16.58-2.6,23.43-7.79,6.84-5.19,12.62-11.89,17.33-20.11,4.71-8.21,8.29-17.11,10.75-26.69,2.45-9.58,3.68-18.8,3.68-27.66,0-10.87-1.95-19.24-5.86-25.12Zm-201.32,27.54c2.46-5.31,5.21-9.72,8.27-13.22,3.06-3.5,6-5.25,8.82-5.25,1.05,0,1.77.32,2.17.97.4.65.61,1.49.61,2.54-.08,2.74-1.41,6.32-3.99,10.75-2.58,4.43-5.8,8.63-9.66,12.62-3.87,3.98-7.81,6.7-11.84,8.15,1.29-5.72,3.16-11.23,5.62-16.54Zm-213.43-1.21l-.12.6c-.72,6.28-2.16,12.78-4.29,19.5-2.13,6.72-4.63,12.48-7.49,17.27-2.86,4.79-5.78,7.19-8.75,7.19-4.35,0-6.52-3.78-6.52-11.35,0-7,1.63-15.22,4.89-24.64,3.26-9.42,6.86-16.7,10.81-21.86.64-.8,1.57-1.67,2.78-2.6,1.21-.92,2.49-1.39,3.87-1.39,3.46.24,5.19,3.83,5.19,10.75,0,2.66-.12,4.83-.36,6.52Zm400.92,0l-.12.6c-.72,6.28-2.16,12.78-4.29,19.5-2.13,6.72-4.63,12.48-7.49,17.27-2.86,4.79-5.78,7.19-8.75,7.19-4.35,0-6.52-3.78-6.52-11.35,0-7,1.63-15.22,4.89-24.64,3.26-9.42,6.86-16.7,10.81-21.86.64-.8,1.57-1.67,2.78-2.6,1.21-.92,2.49-1.39,3.87-1.39,3.46.24,5.19,3.83,5.19,10.75,0,2.66-.12,4.83-.36,6.52Z"/>
  <path class="cls-1" d="m600.44,545.26c-.75,1.28-1.83,2.58-3.23,3.9-1.4,1.32-2.95,2.44-4.63,3.36-1.68.92-3.3,1.38-4.86,1.38-.86,0-1.68-.17-2.44-.52-.76-.35-1.39-.92-1.88-1.71-.49-.79-.73-1.88-.73-3.27l.08-1.8c1.22.5,2.39.75,3.5.75,2.2,0,4.23-.72,6.09-2.15,1.86-1.43,3.36-3.21,4.51-5.34,1.14-2.13,1.71-4.22,1.71-6.28,0-1.33-.3-2.55-.9-3.65-.6-1.1-1.54-1.98-2.82-2.63-1.28-.65-2.98-.98-5.09-.98-2.81,0-5.43.78-7.86,2.34-2.43,1.56-4.57,3.62-6.4,6.2-1.84,2.57-3.28,5.43-4.32,8.57-.38,1.15-.67,2.29-.91,3.44-1.01,1.6-1.97,2.93-2.89,3.99-1.21,1.39-2.38,2.08-3.53,2.08-.95,0-1.42-.6-1.42-1.79.08-1.42.9-4.14,2.46-8.18l.42-1.08c3.25-8.87,6.66-17.96,10.22-27.24h-11.85l-5.13,13.52c-1.47-1.23-3.62-1.84-6.43-1.84-2.56,0-4.92.63-7.07,1.88-2.16,1.25-4.09,2.91-5.8,4.97-1.71,2.06-3.16,4.36-4.36,6.9-1.2,2.55-2.11,5.16-2.73,7.84-.63,2.68-.94,5.21-.94,7.57,0,2.09.26,3.96.77,5.61.51,1.66,1.3,2.96,2.36,3.92,1.06.96,2.41,1.44,4.05,1.44,4.51,0,7.97-2.34,10.39-7.01.19,2.48.92,4.26,2.17,5.36,1.25,1.1,2.74,1.65,4.46,1.65,2.53,0,4.73-.69,6.59-2.09,1.86-1.39,3.47-3.16,4.82-5.3,1.07-1.7,2-3.46,2.81-5.29.09,2.19.47,4.19,1.19,6,.82,2.06,2.13,3.69,3.94,4.88,1.81,1.2,4.17,1.79,7.09,1.79s5.44-.56,7.55-1.69c2.11-1.13,3.93-2.66,5.44-4.59,1.52-1.93,2.83-4.12,3.94-6.57,1.11-2.45,2.11-5.03,3-7.76l-1.38-.58Zm-15.37-6.38c.85-1.84,1.8-3.36,2.86-4.57,1.06-1.21,2.07-1.82,3.05-1.82.36,0,.61.11.75.33.14.22.21.51.21.88-.03.94-.49,2.18-1.38,3.71s-2,2.98-3.34,4.36c-1.33,1.38-2.7,2.32-4.09,2.82.44-1.97,1.09-3.88,1.94-5.71Zm-30.21-.48c-.6,1.96-1.36,4.05-2.29,6.28-.93,2.23-1.91,4.16-2.92,5.8-1.02,1.64-1.94,2.46-2.77,2.46s-1.21-.76-1.21-2.29c0-1.28.28-2.91.83-4.88.56-1.98,1.29-3.92,2.19-5.84.9-1.92,1.89-3.53,2.96-4.84,1.07-1.31,2.11-1.96,3.11-1.96.67,0,1,.47,1,1.42,0,.61-.3,1.9-.9,3.86Z"/>
  <path class="cls-1" d="m708.78,545.26c-1.36,2.34-2.66,4.2-3.88,5.59-1.22,1.39-2.39,2.08-3.5,2.08-.42,0-.76-.12-1.02-.38-.26-.25-.4-.64-.4-1.17.14-1.39.71-3.49,1.71-6.3.7-1.95,1.33-3.98,1.92-6.11.58-2.13.9-4.11.96-5.95,0-2.34-.6-4.04-1.79-5.11-1.2-1.07-2.81-1.61-4.84-1.61-1.47,0-3.1.36-4.88,1.08-1.78.72-3.5,2-5.17,3.84-.42-3.28-2.52-4.92-6.3-4.92-3.34,0-6.27,1.36-8.8,4.09l1.54-4.09h-11.85c-3.59,9.27-6.23,16.15-7.92,20.64-.99,1.56-1.94,2.86-2.85,3.89-1.22,1.39-2.41,2.08-3.55,2.08-.92,0-1.38-.51-1.38-1.54.14-2.11,1.97-7.52,5.51-16.23,1.09-2.73,2.29-5.67,3.63-8.84h-11.81c-1.59,3.59-3.56,8.41-5.92,14.48-3.12,8.09-5.65,12.14-7.59,12.14-1.25,0-1.88-.72-1.88-2.17,0-2.53,1.06-6.26,3.17-11.18l.08-.17c1.7-4.31,3.46-8.68,5.3-13.1h-11.76c-1.33,2.98-2.82,6.48-4.46,10.51-1.64,4.03-3.07,7.98-4.3,11.83-1.22,3.85-1.88,7-1.96,9.45,0,1.98.38,3.58,1.15,4.8.77,1.22,1.76,2.12,2.98,2.69,1.22.57,2.5.86,3.84.86,1.89,0,3.78-.4,5.67-1.21,1.89-.81,3.52-2.21,4.88-4.21.42,1.89,1.22,3.27,2.4,4.13,1.18.86,2.54,1.29,4.07,1.29,2.53,0,4.73-.69,6.59-2.09.99-.74,1.9-1.59,2.73-2.53-.56,1.58-1.1,3.13-1.61,4.62h11.85c1.59-4.67,4.6-12.86,9.05-24.57.81-2.23,1.85-4.07,3.13-5.55.72-.86,1.49-1.29,2.29-1.29,1.11,0,1.67.64,1.67,1.92,0,.92-1.27,4.74-3.82,11.45-2.55,6.72-4.72,12.73-6.53,18.04h11.85l7.59-20.65c2.48-7.18,4.76-10.76,6.84-10.76,1.11,0,1.67.64,1.67,1.92,0,.86-.29,2.06-.86,3.61-.57,1.54-1.26,3.26-2.07,5.15-1,2.39-1.93,4.78-2.77,7.18-.85,2.39-1.3,4.49-1.36,6.3,0,1.31.24,2.51.71,3.61.47,1.1,1.22,1.98,2.23,2.65,1.02.67,2.34,1,3.98,1,2.53,0,4.73-.69,6.59-2.09,1.86-1.39,3.46-3.16,4.8-5.3,1.33-2.14,2.47-4.38,3.42-6.72.95-2.34,1.74-4.51,2.38-6.51l-1.38-.58Z"/>
  <g>
    <path class="cls-2" d="m377.31,778.52c-11.02,0-21.55-1.34-31.61-4.01-10.05-2.68-18.99-6.77-26.79-12.27-7.81-5.51-13.96-12.43-18.45-20.78s-6.74-18.18-6.74-29.52c0-14.97,4.44-28.69,13.32-41.15,8.88-12.46,20.86-20.78,35.94-24.95l-.16,6.1c0,11.87,2.35,21.37,7.06,28.48,4.71,7.11,10.61,12.27,17.73,15.48,7.11,3.21,14.3,4.81,21.58,4.81,9.2,0,17.46-2.17,24.79-6.5,7.32-4.33,10.99-9.81,10.99-16.44,0-4.92-2.68-8.88-8.02-11.87-5.35-2.99-11.87-5.88-19.57-8.66-6.42-2.35-13-5.11-19.73-8.26-6.74-3.15-13.05-7.03-18.93-11.63-13.16-10.59-19.73-24.97-19.73-43.16,0-13.58,4.57-26.82,13.72-39.71,9.15-12.89,20.86-23.53,35.14-31.93,14.28-8.4,29.12-12.59,44.52-12.59,10.27,0,19.68,1.66,28.24,4.97,8.56,3.32,15.4,8.42,20.54,15.32,5.13,6.9,7.7,15.86,7.7,26.87,0,8.99-1.79,17.6-5.37,25.83-3.59,8.24-8.66,14.98-15.24,20.22-6.58,5.24-14.47,7.86-23.66,7.86-5.99,0-11.45-1.15-16.37-3.45-4.92-2.3-8.82-5.75-11.71-10.35-2.89-4.6-4.33-10.32-4.33-17.17,2.89.75,5.62,1.12,8.18,1.12,6.52,0,12.22-1.9,17.09-5.7,4.87-3.8,8.64-8.56,11.31-14.28,2.67-5.72,4.01-11.42,4.01-17.09,0-6.31-4.44-9.47-13.32-9.47-4.92,0-10.64,1.15-17.17,3.45-6.53,2.3-12.84,5.67-18.93,10.11-6.1,4.44-11.18,9.84-15.24,16.2-4.07,6.36-6.1,13.61-6.1,21.74,0,6.2,2.03,11.34,6.1,15.4,4.06,4.07,9.39,7.57,15.96,10.51,6.58,2.94,13.74,5.75,21.5,8.42,7.75,2.67,15.45,5.67,23.1,8.98,7.65,3.32,14.65,7.38,21.02,12.19,6.36,4.81,11.5,10.78,15.4,17.89,3.9,7.11,5.86,15.91,5.86,26.39,0,15.3-3.37,28.72-10.11,40.27-6.74,11.55-15.64,21.2-26.71,28.96-11.07,7.75-23.29,13.58-36.66,17.49-13.37,3.9-26.74,5.86-40.11,5.86Z"/>
    <path class="cls-2" d="m541.92,740.49c-9.31,0-16.82-2.06-22.54-6.18-5.72-4.12-9.92-9.65-12.59-16.61-2.67-6.95-4.01-14.76-4.01-23.42,0-10.69,1.82-22.03,5.46-34.01,6.31-20.86,15.35-37.92,27.11-51.18,13.48-15.29,29.57-22.94,48.29-22.94,10.69,0,18.64,3.91,23.83,11.71,5.19,7.81,7.78,18.93,7.78,33.37,0,11.77-1.63,24.01-4.89,36.74-3.26,12.73-8.02,24.55-14.28,35.46-6.26,10.91-13.93,19.81-23.02,26.71-9.09,6.9-19.47,10.35-31.13,10.35Zm19.73-48.45c3.96,0,7.83-3.18,11.63-9.55,3.79-6.36,7.11-14.01,9.95-22.94,2.83-8.93,4.73-17.57,5.7-25.91l.16-.8c.32-2.25.48-5.13.48-8.66,0-9.2-2.3-13.96-6.9-14.28-1.82,0-3.53.62-5.13,1.84-1.6,1.23-2.84,2.38-3.69,3.45-5.24,6.85-10.03,16.52-14.36,29.04-4.33,12.51-6.5,23.42-6.5,32.73,0,10.05,2.89,15.08,8.66,15.08Z"/>
    <path class="cls-2" d="m694.98,740.49c-6.31,0-11.45-1.28-15.4-3.85-3.96-2.57-6.85-5.96-8.66-10.19-1.82-4.22-2.73-8.85-2.73-13.88.21-6.95,1.95-15,5.21-24.15,3.26-9.14,6.82-18.26,10.67-27.35,3.1-7.27,5.78-13.9,8.02-19.9,2.25-5.99,3.37-10.69,3.37-14.12,0-4.92-2.14-7.38-6.42-7.38-3.32,0-6.45,1.82-9.39,5.46-2.94,3.64-5.48,7.7-7.62,12.19-2.14,4.49-3.75,8.24-4.81,11.23l-2.25,5.94c-14.12,36.9-24.65,65.57-31.61,86h-45.56c7.17-20.96,15.51-44.07,25.03-69.31,6.31-16.9,17.17-45.24,32.57-85.03h45.56l-5.46,14.28c8.77-9.52,18.24-14.28,28.4-14.28,7.91,0,14.17,2.06,18.77,6.18,4.6,4.12,6.9,10.67,6.9,19.65-.22,7.49-1.5,15.32-3.85,23.5-2.35,8.18-4.87,15.91-7.54,23.18-3.85,10.16-5.99,17.81-6.42,22.94,0,4.6,1.82,6.9,5.46,6.9,4.38,0,8.93-2.67,13.64-8.02,4.71-5.35,9.68-12.51,14.92-21.5l5.13,2.25c-2.46,7.7-5.48,16.04-9.06,25.03-3.58,8.98-7.94,17.6-13.08,25.83-5.13,8.24-11.29,15.03-18.45,20.38-7.17,5.35-15.62,8.02-25.35,8.02Z"/>
    <path class="cls-2" d="m832.32,740.49c-6.42,0-11.58-1.31-15.48-3.93-3.91-2.62-6.74-6.07-8.5-10.35-1.76-4.28-2.65-8.98-2.65-14.12.32-6.31,2.01-13.85,5.05-22.62,3.05-8.77,6.44-17.7,10.19-26.79,3.21-7.7,5.94-14.71,8.18-21.02,2.25-6.31,3.47-11.34,3.69-15.08,0-4.38-2.14-6.68-6.42-6.9-2.25,0-5.35,1.9-9.31,5.7-3.96,3.8-7.65,9.71-11.07,17.73-13.8,35.19-25.51,67.65-35.14,97.39h-45.57c8.77-25.78,20.91-59.55,36.42-101.32,15.51-41.77,27.81-74.42,36.9-97.95h45.56c-8.77,23.1-16.42,43.48-22.94,61.13,9.09-10.8,19.15-16.2,30.16-16.2,7.91,0,14.14,2.09,18.69,6.26,4.55,4.17,6.82,10.86,6.82,20.05-.22,7.38-1.5,15.16-3.85,23.34-2.35,8.18-4.87,15.96-7.54,23.34-3.75,10.06-5.83,17.54-6.26,22.46,0,4.6,1.82,6.9,5.46,6.9,4.38,0,8.93-2.67,13.64-8.02,4.71-5.35,9.63-12.51,14.76-21.5l5.29,2.25c-2.46,7.7-5.48,16.04-9.06,25.03-3.58,8.98-7.97,17.6-13.16,25.83-5.19,8.24-11.37,15.03-18.53,20.38-7.17,5.35-15.62,8.02-25.35,8.02Z"/>
    <path class="cls-2" d="m924.57,740.49c-9.31,0-16.82-2.06-22.54-6.18-5.72-4.12-9.92-9.65-12.6-16.61-2.67-6.95-4.01-14.76-4.01-23.42,0-10.69,1.82-22.03,5.46-34.01,6.31-20.86,15.35-37.92,27.11-51.18,13.48-15.29,29.57-22.94,48.29-22.94,10.69,0,18.64,3.91,23.83,11.71,5.19,7.81,7.78,18.93,7.78,33.37,0,11.77-1.63,24.01-4.89,36.74-3.26,12.73-8.02,24.55-14.28,35.46-6.26,10.91-13.93,19.81-23.02,26.71-9.09,6.9-19.47,10.35-31.12,10.35Zm19.73-48.45c3.96,0,7.83-3.18,11.63-9.55,3.79-6.36,7.11-14.01,9.95-22.94,2.83-8.93,4.73-17.57,5.7-25.91l.16-.8c.32-2.25.48-5.13.48-8.66,0-9.2-2.3-13.96-6.9-14.28-1.82,0-3.53.62-5.13,1.84-1.6,1.23-2.83,2.38-3.69,3.45-5.24,6.85-10.03,16.52-14.36,29.04-4.33,12.51-6.5,23.42-6.5,32.73,0,10.05,2.89,15.08,8.66,15.08Z"/>
  </g>
  <g>
    <path class="cls-2" d="m349.96,455.65c1.79,1.24,4.37,1.87,7.69,1.87,1.05,0,2.12-.06,3.19-.16.09-2.54.14-5.09.14-7.64,0-18.11-2.48-35.69-7.37-52.74-1.82,4.36-3.45,8.88-4.87,13.53-3.09,10.08-4.65,19.83-4.65,28.97,0,4.11.59,7.73,1.77,10.75.93,2.4,2.24,4.12,4.11,5.42Z"/>
    <path class="cls-2" d="m342.43,521.93c-14.2,0-26.06-3.01-35.24-8.95-2.96-1.92-5.64-4.08-8.1-6.44-4.06,9.1-8.98,16.94-14.8,23.45-8.65,9.67-18.82,14.5-30.53,14.5-8.17,0-14.78-1.84-19.81-5.51-5.04-3.68-8.71-8.75-11.03-15.22-2.32-6.47-3.47-13.79-3.47-21.96,0-22.19,6.36-46.53,19.1-73.02,12.73-26.48,27.4-45.31,44.01-56.47-3.95-6.67-9.7-11.23-17.26-13.68-7.56-2.45-14.6-3.68-21.14-3.68-20.29,0-38.67,8.78-55.14,26.35-15.52,16.75-27.95,37.72-37.27,62.91-9.33,25.19-13.99,50.24-13.99,75.16,0,13.62,1.67,26.59,5,38.91,3.34,12.32,8.58,23.18,15.73,32.58,7.15,9.4,16.44,16.82,27.88,22.26,11.44,5.44,25.33,8.17,41.66,8.17,20.42,0,38.84-4.94,55.25-14.81,16.41-9.87,30.4-23.01,41.97-39.42,9.68-13.73,17.44-28.89,23.31-45.43-2.01.19-4.05.31-6.11.31Z"/>
    <path class="cls-2" d="m142.04,402.13c0-5.31.75-10.69,2.25-16.13,5.72-19.47,15.22-33.63,28.49-42.48,13.28-8.85,28.42-13.28,45.44-13.28,31.59,0,55.55,11.98,71.89,35.95,3.98,5.9,7.38,12.2,10.22,18.87.44-.84.87-1.68,1.32-2.51,6.49-11.96,14.2-22.92,22.92-32.57,1.1-1.22,2.22-2.42,3.36-3.58-.59-.75-1.16-1.52-1.77-2.26-11.92-14.43-27.2-25.94-45.85-34.52-18.66-8.58-40.92-12.87-66.79-12.87-23.97.14-45.99,4.05-66.07,11.74-20.09,7.69-36.29,18.96-48.61,33.8-12.32,14.84-18.69,32.82-19.1,53.92,0,9.53,1.87,17.63,5.62,24.3,3.74,6.67,8.68,11.78,14.81,15.32,6.13,3.54,12.8,5.31,20.01,5.31,9.67,0,19.47-3.47,29.41-10.42-5.04-8.85-7.56-18.38-7.56-28.59Z"/>
  </g>
</svg>