<?xml version="1.0" encoding="UTF-8"?>
<svg id="Camada_1" data-name="Camada 1" xmlns="http://www.w3.org/2000/svg" viewBox="0 0 1080 1920">
  <defs>
    <style>
      .cls-1 {
        fill: #c7e2cd;
      }

      .cls-2 {
        fill: #a4bcbb;
      }

      .cls-3 {
        fill: #266e6c;
      }
    </style>
  </defs>
  <rect class="cls-2" width="1080" height="1920"/>
  <g>
    <path class="cls-1" d="m779.71,858.48c-2.74-4.12-6.93-6.18-12.57-6.18-9.87,0-18.36,4.03-25.47,12.1-6.21,7-10.97,15.99-14.3,27-.26.87-.51,1.73-.73,2.59-1.21,1.53-2.64,3.08-4.3,4.64-2.85,2.68-6,4.95-9.44,6.81-3.44,1.86-6.74,2.79-9.9,2.79-6.77-.11-10.15-4.09-10.15-11.93,0-4.29.92-8.87,2.75-13.75,1.83-4.88,4.06-9.06,6.69-12.52,2.62-3.47,5.09-5.2,7.4-5.2,1.3,0,1.95.82,1.95,2.45,0,1.75-.8,3.78-2.41,6.09-1.61,2.31-3.71,3.75-6.31,4.32,1.07,5.13,4.26,7.7,9.56,7.7,2.42-.06,4.65-.96,6.69-2.71,2.03-1.75,3.64-3.96,4.82-6.64,1.19-2.68,1.78-5.46,1.78-8.34,0-2.65-.61-5.15-1.82-7.49-1.21-2.34-3.17-4.24-5.88-5.71-2.71-1.47-6.35-2.2-10.92-2.2-5.81,0-11.21,1.67-16.21,4.99-4.99,3.33-9.32,7.66-12.99,12.99s-6.53,11.14-8.59,17.43c-.68,2.07-1.23,4.11-1.68,6.14-1.23,1.58-2.7,3.17-4.41,4.78-2.85,2.68-5.98,4.95-9.39,6.81-3.41,1.86-6.7,2.79-9.86,2.79-1.75,0-3.4-.35-4.95-1.06-1.55-.71-2.82-1.86-3.81-3.47-.99-1.61-1.48-3.82-1.48-6.64l.17-3.64c2.48,1.02,4.85,1.52,7.11,1.52,4.46,0,8.58-1.45,12.36-4.36,3.78-2.91,6.83-6.52,9.14-10.83,2.31-4.32,3.47-8.56,3.47-12.74,0-2.71-.61-5.18-1.82-7.4-1.21-2.23-3.12-4.01-5.71-5.33-2.6-1.32-6.04-1.99-10.32-1.99-5.7,0-11.02,1.58-15.95,4.74-4.94,3.16-9.27,7.35-12.99,12.57-3.72,5.22-6.64,11.02-8.76,17.39-.78,2.36-1.42,4.73-1.92,7.09-2.02,3.2-3.97,5.86-5.83,7.97-2.48,2.82-4.85,4.23-7.11,4.23-.85,0-1.54-.25-2.07-.76-.54-.51-.8-1.3-.8-2.37.28-2.82,1.44-7.08,3.47-12.78,1.41-3.95,2.71-8.08,3.89-12.4,1.18-4.32,1.83-8.34,1.95-12.06,0-4.74-1.21-8.19-3.64-10.37-2.43-2.17-5.7-3.26-9.82-3.26-2.99,0-6.29.73-9.9,2.2-3.61,1.47-7.11,4.06-10.49,7.79-.85-6.66-5.11-9.99-12.78-9.99-6.77,0-12.72,2.76-17.86,8.29l3.13-8.29h-24.03c-7.26,18.75-12.6,32.67-16.03,41.78,1.49-6.22,2.25-12.22,2.25-18,0-7.62-1.37-13.48-4.1-17.6-2.74-4.12-6.93-6.18-12.57-6.18-9.87,0-18.36,4.03-25.47,12.1-6.21,7-10.97,15.99-14.3,27-.24.8-.47,1.59-.68,2.37-3.42,4.42-8.01,8.18-13.75,11.3-7.02,3.81-13.7,5.71-20.01,5.71-3.72,0-6.78-.83-9.18-2.5-2.4-1.66-4.16-3.95-5.29-6.85-1.13-2.9-1.69-6.22-1.69-9.94,0-7.11,1.19-14.53,3.55-22.26,2.37-7.73,5.44-14.89,9.22-21.49,3.78-6.6,7.91-11.97,12.4-16.12,4.49-4.15,8.84-6.22,13.07-6.22,1.19,0,2.29.34,3.3,1.02,1.02.68,1.52,1.86,1.52,3.55-.06,3.27-.88,6.46-2.45,9.56-1.58,3.1-3.74,5.68-6.47,7.74-2.74,2.06-5.88,3.09-9.44,3.09-1.35,0-2.77-.2-4.23-.59-.17.96-.25,1.86-.25,2.71,0,4.23,1.59,7.56,4.78,9.99,3.19,2.43,6.98,3.64,11.38,3.64,5.13,0,9.59-1.52,13.37-4.57,3.78-3.05,6.73-6.92,8.84-11.64,2.12-4.71,3.17-9.55,3.17-14.51,0-4.06-.82-7.86-2.45-11.38-1.64-3.53-4.19-6.39-7.66-8.59-3.47-2.2-8-3.3-13.58-3.3-7.33,0-14.41,1.92-21.24,5.75-6.83,3.84-13.13,8.96-18.91,15.36-5.78,6.4-10.83,13.58-15.15,21.54-4.32,7.95-7.69,16.16-10.11,24.63-2.43,8.46-3.64,16.53-3.64,24.2,0,7.28,1.23,13.87,3.68,19.76,2.45,5.9,6.36,10.58,11.72,14.05,5.36,3.47,12.38,5.2,21.07,5.2,12.36,0,23.02-5.64,31.99-16.92,3.79-4.76,7.2-10.18,10.24-16.27,0,4.55.71,8.65,2.11,12.3,1.41,3.67,3.62,6.59,6.64,8.76,3.02,2.17,6.98,3.26,11.89,3.26,6.15,0,11.62-1.82,16.42-5.46,4.79-3.64,8.84-8.34,12.14-14.09.42-.74.83-1.48,1.23-2.23-2.81,7.69-5.38,14.95-7.71,21.78h24.03c3.22-9.48,9.34-26.09,18.36-49.84,1.64-4.51,3.75-8.26,6.35-11.26,1.47-1.75,3.02-2.62,4.65-2.62,2.26,0,3.39,1.3,3.39,3.89,0,1.86-2.58,9.6-7.74,23.23-5.16,13.62-9.58,25.83-13.24,36.6h24.03l15.4-41.89c5.02-14.56,9.65-21.83,13.88-21.83,2.26,0,3.38,1.3,3.38,3.89,0,1.75-.58,4.19-1.73,7.32-1.16,3.13-2.55,6.62-4.19,10.45-2.03,4.85-3.91,9.7-5.63,14.56-1.72,4.85-2.64,9.11-2.75,12.78,0,2.65.48,5.09,1.44,7.32.96,2.23,2.47,4.02,4.53,5.37,2.06,1.35,4.75,2.03,8.08,2.03,5.13,0,9.59-1.41,13.37-4.23,3.78-2.82,7.02-6.4,9.73-10.75,2.16-3.46,4.05-7.05,5.71-10.76.18,4.46.99,8.53,2.46,12.2,1.66,4.18,4.33,7.48,8,9.9,3.67,2.43,8.46,3.64,14.39,3.64s11.03-1.14,15.32-3.43,7.97-5.39,11.04-9.31c2.98-3.8,5.57-8.1,7.79-12.88.41,10.15,3.95,17.45,10.62,21.89,2.99,2.03,6.69,3.22,11.09,3.55l-4.4,5.67c4.79,1.8,7.19,3.98,7.19,6.52,0,1.47-.93,2.2-2.79,2.2s-3.98-1.47-6.18-4.4c-2.03,2.43-3.05,4.88-3.05,7.36,0,4.17,2.82,6.26,8.46,6.26,8.41,0,12.61-3.27,12.61-9.82,0-4.29-2.45-7.7-7.36-10.24l2.79-3.55c9.03-.96,16.47-5.16,22.34-12.61,2.41-3.05,4.7-6.75,6.87-11.08.05,4.36.75,8.31,2.11,11.84,1.41,3.67,3.62,6.59,6.64,8.76,3.02,2.17,6.98,3.26,11.89,3.26,6.15,0,11.62-1.82,16.42-5.46,4.79-3.64,8.84-8.34,12.14-14.09,3.3-5.75,5.81-11.99,7.53-18.7,1.72-6.71,2.58-13.17,2.58-19.38,0-7.62-1.37-13.48-4.1-17.6Zm-141.07,19.3c1.72-3.72,3.65-6.81,5.8-9.27,2.14-2.45,4.2-3.68,6.18-3.68.73,0,1.24.23,1.52.68.28.45.42,1.04.42,1.78-.06,1.92-.99,4.43-2.79,7.53-1.81,3.1-4.06,6.05-6.77,8.84-2.71,2.79-5.47,4.7-8.29,5.71.9-4.01,2.21-7.87,3.94-11.59Zm-149.56-.85l-.08.42c-.51,4.4-1.51,8.96-3,13.67-1.5,4.71-3.25,8.75-5.25,12.1-2,3.36-4.05,5.04-6.13,5.04-3.05,0-4.57-2.65-4.57-7.95,0-4.91,1.14-10.66,3.43-17.26,2.28-6.6,4.81-11.71,7.57-15.32.45-.56,1.1-1.17,1.95-1.82.85-.65,1.75-.97,2.71-.97,2.42.17,3.64,2.68,3.64,7.53,0,1.86-.08,3.38-.25,4.57Zm280.94,0l-.08.42c-.51,4.4-1.51,8.96-3,13.67-1.5,4.71-3.25,8.75-5.25,12.1-2,3.36-4.05,5.04-6.13,5.04-3.05,0-4.57-2.65-4.57-7.95,0-4.91,1.14-10.66,3.43-17.26,2.28-6.6,4.81-11.71,7.57-15.32.45-.56,1.1-1.17,1.95-1.82.85-.65,1.75-.97,2.71-.97,2.42.17,3.64,2.68,3.64,7.53,0,1.86-.08,3.38-.25,4.57Z"/>
    <path class="cls-1" d="m583.18,965.34c-.53.9-1.28,1.81-2.27,2.73-.98.93-2.07,1.71-3.25,2.35-1.18.64-2.31.96-3.41.96-.6,0-1.17-.12-1.71-.37-.54-.24-.97-.64-1.32-1.2-.34-.56-.51-1.32-.51-2.29l.06-1.26c.86.35,1.68.53,2.46.53,1.54,0,2.96-.5,4.27-1.51,1.31-1,2.36-2.25,3.16-3.74.8-1.49,1.2-2.96,1.2-4.4,0-.94-.21-1.79-.63-2.56-.42-.77-1.08-1.38-1.97-1.84-.9-.46-2.09-.69-3.57-.69-1.97,0-3.81.55-5.51,1.64-1.71,1.09-3.2,2.54-4.49,4.34-1.29,1.8-2.3,3.81-3.03,6.01-.27.8-.47,1.61-.64,2.41-.71,1.12-1.38,2.05-2.02,2.79-.85.97-1.67,1.46-2.47,1.46-.66,0-.99-.42-.99-1.26.06-.99.63-2.9,1.72-5.73l.29-.76c2.28-6.22,4.67-12.58,7.16-19.09h-8.3l-3.6,9.47c-1.03-.86-2.53-1.29-4.5-1.29-1.79,0-3.45.44-4.96,1.32-1.51.88-2.87,2.04-4.06,3.48-1.2,1.44-2.22,3.05-3.06,4.84-.84,1.78-1.48,3.62-1.91,5.5-.44,1.88-.66,3.65-.66,5.31,0,1.46.18,2.77.54,3.93.36,1.16.91,2.08,1.65,2.75.74.67,1.69,1.01,2.84,1.01,3.16,0,5.58-1.64,7.28-4.91.14,1.74.64,2.99,1.52,3.76.88.77,1.92,1.16,3.13,1.16,1.77,0,3.31-.49,4.62-1.46,1.31-.97,2.43-2.21,3.38-3.71.75-1.19,1.4-2.43,1.97-3.7.06,1.53.33,2.94.84,4.2.57,1.44,1.5,2.58,2.76,3.42,1.27.84,2.92,1.26,4.97,1.26s3.81-.39,5.29-1.18c1.48-.79,2.75-1.86,3.82-3.22,1.06-1.36,1.98-2.89,2.76-4.61.78-1.71,1.48-3.53,2.1-5.44l-.96-.41Zm-10.77-4.47c.59-1.29,1.26-2.35,2-3.2.74-.85,1.45-1.27,2.13-1.27.25,0,.43.08.53.23.1.16.15.36.15.61-.02.66-.34,1.53-.96,2.6s-1.4,2.09-2.34,3.05c-.94.97-1.89,1.62-2.87,1.97.31-1.38.76-2.72,1.36-4Zm-21.17-.34c-.42,1.37-.96,2.84-1.61,4.4-.65,1.56-1.34,2.91-2.05,4.06-.71,1.15-1.36,1.72-1.94,1.72s-.85-.54-.85-1.61c0-.9.19-2.04.58-3.42.39-1.38.9-2.75,1.54-4.09.63-1.34,1.32-2.47,2.08-3.39.75-.92,1.48-1.37,2.18-1.37.47,0,.7.33.7.99,0,.43-.21,1.33-.63,2.7Z"/>
    <path class="cls-1" d="m659.1,965.34c-.95,1.64-1.86,2.94-2.72,3.92-.86.97-1.68,1.46-2.46,1.46-.29,0-.53-.09-.72-.26-.19-.18-.28-.45-.28-.82.1-.97.5-2.45,1.2-4.42.49-1.36.94-2.79,1.35-4.28.41-1.49.63-2.88.67-4.17,0-1.64-.42-2.83-1.26-3.58-.84-.75-1.97-1.13-3.39-1.13-1.03,0-2.17.25-3.42.76-1.25.51-2.46,1.4-3.63,2.69-.29-2.3-1.76-3.45-4.41-3.45-2.34,0-4.4.95-6.17,2.86l1.08-2.86h-8.3c-2.52,6.5-4.36,11.32-5.55,14.47-.69,1.09-1.36,2-1.99,2.73-.86.97-1.69,1.46-2.49,1.46-.64,0-.96-.36-.96-1.08.1-1.48,1.38-5.27,3.86-11.37.76-1.91,1.61-3.98,2.54-6.2h-8.27c-1.11,2.51-2.5,5.9-4.15,10.14-2.18,5.67-3.96,8.51-5.32,8.51-.88,0-1.32-.51-1.32-1.52,0-1.77.74-4.39,2.22-7.84l.06-.12c1.19-3.02,2.43-6.08,3.71-9.18h-8.24c-.94,2.09-1.98,4.54-3.13,7.37-1.15,2.83-2.15,5.59-3.01,8.29-.86,2.7-1.32,4.91-1.37,6.62,0,1.38.27,2.51.8,3.36.54.86,1.23,1.49,2.09,1.88.86.4,1.75.6,2.69.6,1.33,0,2.65-.28,3.98-.85,1.33-.56,2.47-1.55,3.42-2.95.29,1.33.85,2.29,1.68,2.89.83.6,1.78.91,2.85.91,1.77,0,3.31-.49,4.62-1.46.69-.52,1.33-1.11,1.92-1.78-.39,1.11-.77,2.19-1.13,3.24h8.3c1.11-3.27,3.23-9.01,6.34-17.22.57-1.56,1.3-2.86,2.19-3.89.51-.6,1.04-.91,1.61-.91.78,0,1.17.45,1.17,1.35,0,.64-.89,3.32-2.67,8.03-1.78,4.71-3.31,8.92-4.58,12.64h8.3l5.32-14.47c1.73-5.03,3.33-7.54,4.79-7.54.78,0,1.17.45,1.17,1.35,0,.6-.2,1.45-.6,2.53-.4,1.08-.88,2.29-1.45,3.61-.7,1.68-1.35,3.35-1.94,5.03-.59,1.68-.91,3.15-.95,4.41,0,.92.17,1.76.5,2.53.33.77.85,1.39,1.56,1.86.71.47,1.64.7,2.79.7,1.77,0,3.31-.49,4.62-1.46,1.31-.97,2.43-2.21,3.36-3.71.94-1.5,1.73-3.07,2.4-4.71.66-1.64,1.22-3.16,1.67-4.56l-.97-.41Z"/>
    <g>
      <path class="cls-3" d="m426.83,1128.8c-7.72,0-15.1-.94-22.15-2.81-7.05-1.87-13.3-4.74-18.77-8.6-5.47-3.86-9.78-8.71-12.93-14.56s-4.72-12.74-4.72-20.69c0-10.49,3.11-20.11,9.33-28.84,6.22-8.73,14.62-14.56,25.18-17.48l-.11,4.27c0,8.32,1.65,14.97,4.95,19.96,3.3,4.99,7.44,8.6,12.42,10.85,4.98,2.25,10.02,3.37,15.12,3.37,6.45,0,12.23-1.52,17.37-4.55,5.13-3.04,7.7-6.88,7.7-11.52,0-3.45-1.87-6.22-5.62-8.32-3.75-2.1-8.32-4.12-13.72-6.07-4.5-1.65-9.11-3.58-13.83-5.79-4.72-2.21-9.15-4.93-13.27-8.15-9.22-7.42-13.83-17.5-13.83-30.24,0-9.52,3.2-18.79,9.61-27.83,6.41-9.03,14.62-16.49,24.62-22.37,10.01-5.88,20.41-8.83,31.2-8.83,7.2,0,13.79,1.16,19.79,3.49,6,2.32,10.79,5.9,14.39,10.74,3.6,4.83,5.4,11.11,5.4,18.83,0,6.3-1.26,12.33-3.77,18.1-2.51,5.77-6.07,10.49-10.68,14.17-4.61,3.67-10.14,5.51-16.58,5.51-4.2,0-8.02-.8-11.47-2.42-3.45-1.61-6.18-4.03-8.21-7.25-2.02-3.22-3.04-7.23-3.04-12.03,2.02.52,3.94.79,5.73.79,4.57,0,8.56-1.33,11.97-3.99,3.41-2.66,6.05-6,7.93-10.01,1.87-4.01,2.81-8,2.81-11.97,0-4.42-3.11-6.63-9.33-6.63-3.45,0-7.46.81-12.03,2.42-4.57,1.61-8.99,3.97-13.27,7.08-4.27,3.11-7.83,6.9-10.68,11.36-2.85,4.46-4.27,9.54-4.27,15.23,0,4.35,1.42,7.95,4.27,10.79,2.85,2.85,6.58,5.3,11.19,7.36,4.61,2.06,9.63,4.03,15.07,5.9,5.43,1.87,10.83,3.97,16.19,6.3,5.36,2.32,10.27,5.17,14.73,8.54,4.46,3.37,8.06,7.55,10.79,12.54,2.74,4.99,4.1,11.15,4.1,18.49,0,10.72-2.36,20.12-7.08,28.22-4.72,8.1-10.96,14.86-18.72,20.29-7.76,5.43-16.32,9.52-25.69,12.25-9.37,2.74-18.74,4.1-28.11,4.1Z"/>
      <path class="cls-3" d="m542.18,1102.15c-6.52,0-11.79-1.44-15.8-4.33-4.01-2.88-6.95-6.76-8.83-11.64-1.87-4.87-2.81-10.34-2.81-16.41,0-7.49,1.28-15.44,3.82-23.83,4.42-14.62,10.75-26.57,19-35.86,9.44-10.72,20.72-16.08,33.84-16.08,7.49,0,13.06,2.74,16.7,8.21,3.63,5.47,5.45,13.27,5.45,23.38,0,8.25-1.14,16.83-3.43,25.75-2.29,8.92-5.62,17.2-10.01,24.85s-9.76,13.88-16.13,18.72c-6.37,4.83-13.64,7.25-21.81,7.25Zm13.83-33.95c2.77,0,5.49-2.23,8.15-6.69,2.66-4.46,4.98-9.82,6.97-16.08,1.99-6.26,3.32-12.31,3.99-18.16l.11-.56c.23-1.57.34-3.6.34-6.07,0-6.45-1.61-9.78-4.83-10.01-1.28,0-2.47.43-3.6,1.29-1.12.86-1.99,1.67-2.59,2.42-3.67,4.8-7.03,11.58-10.06,20.35-3.03,8.77-4.55,16.41-4.55,22.94,0,7.05,2.02,10.57,6.07,10.57Z"/>
      <path class="cls-3" d="m649.43,1102.15c-4.42,0-8.02-.9-10.79-2.7-2.77-1.8-4.8-4.18-6.07-7.14-1.28-2.96-1.91-6.2-1.91-9.73.15-4.87,1.37-10.51,3.65-16.92,2.29-6.41,4.78-12.8,7.48-19.17,2.17-5.1,4.05-9.74,5.62-13.94,1.57-4.2,2.36-7.49,2.36-9.89,0-3.45-1.5-5.17-4.5-5.17-2.32,0-4.52,1.28-6.58,3.82-2.06,2.55-3.84,5.4-5.34,8.54-1.5,3.15-2.62,5.77-3.37,7.87l-1.57,4.16c-9.89,25.86-17.28,45.95-22.15,60.26h-31.93c5.02-14.69,10.87-30.88,17.54-48.57,4.42-11.84,12.03-31.7,22.82-59.59h31.93l-3.82,10.01c6.14-6.67,12.78-10.01,19.9-10.01,5.55,0,9.93,1.44,13.15,4.33,3.22,2.89,4.83,7.48,4.83,13.77-.15,5.25-1.05,10.74-2.7,16.47-1.65,5.73-3.41,11.15-5.28,16.25-2.7,7.12-4.2,12.48-4.5,16.08,0,3.22,1.27,4.83,3.82,4.83,3.07,0,6.26-1.87,9.56-5.62,3.3-3.75,6.78-8.77,10.46-15.07l3.6,1.57c-1.72,5.4-3.84,11.24-6.35,17.54-2.51,6.3-5.57,12.33-9.16,18.1-3.6,5.77-7.91,10.53-12.93,14.28-5.02,3.75-10.94,5.62-17.76,5.62Z"/>
      <path class="cls-3" d="m745.67,1102.15c-4.5,0-8.11-.92-10.85-2.75-2.74-1.84-4.72-4.25-5.96-7.25-1.24-3-1.86-6.3-1.86-9.89.23-4.42,1.41-9.71,3.54-15.85,2.14-6.14,4.51-12.4,7.14-18.78,2.25-5.4,4.16-10.3,5.73-14.73,1.57-4.42,2.43-7.94,2.59-10.57,0-3.07-1.5-4.68-4.5-4.83-1.57,0-3.75,1.33-6.52,3.99-2.77,2.66-5.36,6.8-7.76,12.42-9.67,24.66-17.88,47.41-24.62,68.24h-31.93c6.15-18.06,14.65-41.73,25.52-71,10.87-29.27,19.49-52.15,25.86-68.64h31.93c-6.15,16.19-11.51,30.47-16.08,42.83,6.37-7.57,13.42-11.36,21.14-11.36,5.55,0,9.91,1.46,13.1,4.38,3.19,2.92,4.78,7.61,4.78,14.05-.15,5.17-1.05,10.62-2.7,16.36-1.65,5.73-3.41,11.19-5.28,16.36-2.62,7.05-4.09,12.29-4.38,15.74,0,3.22,1.27,4.83,3.82,4.83,3.07,0,6.26-1.87,9.56-5.62,3.3-3.75,6.75-8.77,10.34-15.07l3.71,1.57c-1.72,5.4-3.84,11.24-6.35,17.54-2.51,6.3-5.58,12.33-9.22,18.1-3.64,5.77-7.96,10.53-12.99,14.28-5.02,3.75-10.94,5.62-17.76,5.62Z"/>
      <path class="cls-3" d="m810.31,1102.15c-6.52,0-11.79-1.44-15.8-4.33-4.01-2.88-6.95-6.76-8.83-11.64-1.87-4.87-2.81-10.34-2.81-16.41,0-7.49,1.28-15.44,3.82-23.83,4.42-14.62,10.75-26.57,19-35.86,9.44-10.72,20.72-16.08,33.84-16.08,7.49,0,13.06,2.74,16.7,8.21,3.63,5.47,5.45,13.27,5.45,23.38,0,8.25-1.14,16.83-3.43,25.75-2.29,8.92-5.62,17.2-10.01,24.85-4.38,7.65-9.76,13.88-16.13,18.72-6.37,4.83-13.64,7.25-21.81,7.25Zm13.83-33.95c2.77,0,5.49-2.23,8.15-6.69,2.66-4.46,4.98-9.82,6.97-16.08,1.99-6.26,3.32-12.31,3.99-18.16l.11-.56c.22-1.57.34-3.6.34-6.07,0-6.45-1.61-9.78-4.83-10.01-1.28,0-2.47.43-3.6,1.29-1.12.86-1.99,1.67-2.59,2.42-3.67,4.8-7.03,11.58-10.06,20.35-3.03,8.77-4.55,16.41-4.55,22.94,0,7.05,2.02,10.57,6.07,10.57Z"/>
    </g>
    <g>
      <path class="cls-3" d="m407.66,902.55c1.25.87,3.06,1.31,5.39,1.31.73,0,1.48-.04,2.24-.11.06-1.78.1-3.57.1-5.35,0-12.69-1.74-25.01-5.16-36.96-1.27,3.06-2.41,6.22-3.41,9.48-2.16,7.06-3.26,13.89-3.26,20.3,0,2.88.42,5.41,1.24,7.53.65,1.68,1.57,2.89,2.88,3.79Z"/>
      <path class="cls-3" d="m402.38,949c-9.95,0-18.26-2.11-24.69-6.27-2.07-1.34-3.96-2.86-5.68-4.52-2.85,6.38-6.29,11.87-10.37,16.43-6.06,6.78-13.19,10.16-21.4,10.16-5.73,0-10.35-1.29-13.88-3.86-3.53-2.58-6.11-6.13-7.73-10.66-1.62-4.53-2.43-9.66-2.43-15.39,0-15.55,4.46-32.61,13.38-51.16,8.92-18.56,19.2-31.75,30.84-39.57-2.77-4.67-6.8-7.87-12.09-9.59-5.3-1.72-10.23-2.58-14.81-2.58-14.22,0-27.1,6.15-38.64,18.46-10.88,11.74-19.58,26.43-26.12,44.08-6.54,17.65-9.8,35.21-9.8,52.67,0,9.54,1.17,18.63,3.51,27.26,2.34,8.64,6.01,16.24,11.02,22.83,5.01,6.58,11.52,11.78,19.54,15.6,8.01,3.82,17.75,5.73,29.2,5.73,14.31,0,27.21-3.46,38.71-10.38,11.5-6.92,21.3-16.12,29.41-27.62,6.79-9.62,12.22-20.24,16.33-31.83-1.41.13-2.84.22-4.28.22Z"/>
      <path class="cls-3" d="m261.96,865.05c0-3.72.52-7.49,1.57-11.31,4.01-13.64,10.66-23.57,19.96-29.77,9.3-6.2,19.92-9.3,31.84-9.3,22.13,0,38.93,8.4,50.38,25.19,2.79,4.14,5.17,8.55,7.16,13.22.31-.59.61-1.18.92-1.76,4.55-8.38,9.95-16.06,16.06-22.82.77-.86,1.56-1.69,2.35-2.51-.42-.53-.81-1.06-1.24-1.58-8.35-10.11-19.06-18.18-32.13-24.19-13.07-6.01-28.67-9.02-46.8-9.02-16.79.1-32.23,2.84-46.3,8.23-14.07,5.39-25.43,13.29-34.06,23.69-8.64,10.4-13.1,23-13.38,37.78,0,6.68,1.31,12.36,3.94,17.03,2.62,4.68,6.08,8.25,10.38,10.73,4.29,2.48,8.97,3.72,14.03,3.72,6.77,0,13.64-2.43,20.61-7.3-3.53-6.2-5.3-12.88-5.3-20.04Z"/>
    </g>
  </g>
</svg>